<?xml version="1.0" standalone="no"?>
<!DOCTYPE svg PUBLIC "-//W3C//DTD SVG 20010904//EN"
 "http://www.w3.org/TR/2001/REC-SVG-20010904/DTD/svg10.dtd">
<svg version="1.0"
    xmlns="http://www.w3.org/2000/svg" width="1000" height="1000" viewBox="0 0 500.000000 500.000000" preserveAspectRatio="xMidYMid meet">

    <g transform="translate(0.000000,500.000000) scale(0.100000,-0.100000)" fill="#000000" stroke="none">
        <path d="M2307 2423 c-12 -12 -7 -41 8 -47 8 -3 12 -13 9 -23 -2 -10 3 -4 12
14 14 26 15 35 4 48 -14 16 -23 19 -33 8z"/>
        <path d="M1202 2398 c-49 -24 -39 -99 18 -129 19 -10 43 -28 53 -40 16 -20 16
-24 2 -45 -21 -33 3 -33 33 -1 41 43 25 79 -58 131 -44 27 -54 71 -18 85 13 6
16 10 8 10 -8 0 -25 -5 -38 -11z"/>
        <path d="M2412 2398 c-49 -24 -39 -99 18 -129 19 -10 43 -28 53 -40 16 -20 16
-24 2 -45 -13 -21 -14 -24 -1 -24 23 0 56 40 56 67 0 26 -24 52 -80 87 -44 27
-54 71 -18 85 13 6 16 10 8 10 -8 0 -25 -5 -38 -11z"/>
        <path d="M1302 2374 c7 -15 14 -21 16 -15 5 16 -5 41 -17 41 -7 0 -6 -10 1
-26z"/>
        <path d="M1365 2280 l0 -120 83 0 c78 0 82 1 82 23 -1 20 -2 20 -11 5 -7 -13
-23 -18 -54 -18 l-45 0 0 55 c0 54 0 55 29 55 16 0 32 -6 34 -12 3 -7 5 1 5
17 0 17 -2 24 -5 18 -2 -7 -18 -13 -34 -13 -29 0 -29 1 -29 55 0 53 -1 55 -27
55 l-28 0 0 -120z"/>
        <path d="M1506 2385 c4 -8 8 -15 10 -15 2 0 4 7 4 15 0 8 -4 15 -10 15 -5 0
-7 -7 -4 -15z"/>
        <path d="M1565 2280 l0 -120 83 0 c78 0 82 1 82 23 -1 20 -2 20 -11 5 -7 -13
-23 -18 -54 -18 l-45 0 0 55 c0 54 0 55 29 55 16 0 32 -6 34 -12 3 -7 5 1 5
17 0 17 -2 24 -5 18 -2 -7 -18 -13 -34 -13 -29 0 -29 1 -29 55 0 53 -1 55 -27
55 l-28 0 0 -120z"/>
        <path d="M1706 2385 c4 -8 8 -15 10 -15 2 0 4 7 4 15 0 8 -4 15 -10 15 -5 0
-7 -7 -4 -15z"/>
        <path d="M1777 2383 c3 -10 10 -23 14 -28 4 -6 22 -49 39 -95 17 -47 35 -89
40 -94 5 -5 15 7 24 29 18 43 19 48 7 41 -5 -3 -23 33 -40 79 -31 80 -34 85
-61 85 -24 0 -28 -3 -23 -17z"/>
        <path d="M1959 2388 c0 -7 -1 -61 -2 -120 l-2 -108 39 0 c33 0 37 2 26 15 -8
10 -11 47 -8 120 l3 105 -27 0 c-16 0 -28 -6 -29 -12z"/>
        <path d="M2141 2382 c-6 -11 -6 -23 -2 -28 5 -5 15 -30 24 -56 l15 -47 -46 -4
-47 -3 48 -2 c42 -2 49 -5 58 -29 5 -14 8 -32 5 -40 -4 -9 5 -13 35 -13 38 0
39 1 25 23 -7 12 -28 66 -46 120 -32 97 -49 117 -69 79z"/>
        <path d="M2512 2374 c7 -15 14 -21 16 -15 5 16 -5 41 -17 41 -7 0 -6 -10 1
-26z"/>
        <path d="M1160 2192 c0 -12 8 -23 21 -27 28 -9 29 -4 2 24 -22 23 -23 24 -23
3z"/>
        <path d="M2370 2192 c0 -12 8 -23 21 -27 28 -9 29 -4 2 24 -22 23 -23 24 -23
3z"/>
        <path d="M2062 2175 c-11 -13 -10 -15 7 -15 14 0 19 5 15 15 -7 18 -6 18 -22
0z"/>
        <path d="M1775 2170 c-3 -5 1 -10 10 -10 9 0 13 5 10 10 -3 6 -8 10 -10 10 -2
0 -7 -4 -10 -10z"/>
    </g>
</svg>
